# xmcd
#
# Track frame offsets:
#	187
#	10332
#	25982
#	41075
#	52112
#	66572
#	79320
#	91277
#	105382
#	119057
#	128667
#	142160
#
# Disc length: 2049 seconds
#
# Revision: 3
# Processed by: cddbd v1.5.2PL0 Copyright (c) Steve Scherf et al.
# Submitted via: audiograbber 1.83.01
#
DISCID=b007ff0c
DTITLE=Gosdin, Vern - Friday night feeling
DYEAR=1983
DGENRE=Country
TTITLE0=Damn the fever
TTITLE1=It might have been
TTITLE2=Rustin' down
TTITLE3=Too far gone to find
TTITLE4=Singer of sad songs
TTITLE5=When love takes over your life
TTITLE6=Tonight I'm feeling you all over again
TTITLE7=Friday night feeling
TTITLE8=Just give me what you think is fair
TTITLE9=Ain't it been love
TTITLE10=She's just a place to fall
TTITLE11=Don't ever leave me again
EXTD=
EXTT0=
EXTT1=
EXTT2=
EXTT3=
EXTT4=
EXTT5=
EXTT6=
EXTT7=
EXTT8=
EXTT9=
EXTT10=
EXTT11=
PLAYORDER=
